<mxfile host="65bd71144e">
    <diagram id="1g1XJPOiC4x9xOaz64Jg" name="Page-1">
        <mxGraphModel dx="1617" dy="785" grid="1" gridSize="10" guides="1" tooltips="1" connect="1" arrows="1" fold="1" page="1" pageScale="1" pageWidth="850" pageHeight="1100" math="0" shadow="0">
            <root>
                <mxCell id="0"/>
                <mxCell id="1" parent="0"/>
                <mxCell id="2" value="Driver" style="shape=umlActor;verticalLabelPosition=bottom;verticalAlign=top;html=1;outlineConnect=0;" parent="1" vertex="1">
                    <mxGeometry x="50" y="70" width="30" height="60" as="geometry"/>
                </mxCell>
                <mxCell id="3" value="Operator" style="shape=umlActor;verticalLabelPosition=bottom;verticalAlign=top;html=1;outlineConnect=0;" parent="1" vertex="1">
                    <mxGeometry x="660" y="70" width="30" height="60" as="geometry"/>
                </mxCell>
                <mxCell id="5" value="Drive robot&lt;br&gt;&lt;br&gt;" style="ellipse;whiteSpace=wrap;html=1;" parent="1" vertex="1">
                    <mxGeometry x="160" y="60" width="90" height="50" as="geometry"/>
                </mxCell>
                <mxCell id="6" value="intake" style="ellipse;whiteSpace=wrap;html=1;" parent="1" vertex="1">
                    <mxGeometry x="280" y="330" width="80" height="70" as="geometry"/>
                </mxCell>
                <mxCell id="7" value="expell jam" style="ellipse;whiteSpace=wrap;html=1;" parent="1" vertex="1">
                    <mxGeometry x="280" y="410" width="80" height="70" as="geometry"/>
                </mxCell>
                <mxCell id="8" value="shoot" style="ellipse;whiteSpace=wrap;html=1;" parent="1" vertex="1">
                    <mxGeometry x="400" y="330" width="80" height="70" as="geometry"/>
                </mxCell>
                <mxCell id="9" value="clear shooter" style="ellipse;whiteSpace=wrap;html=1;" parent="1" vertex="1">
                    <mxGeometry x="400" y="410" width="80" height="70" as="geometry"/>
                </mxCell>
                <mxCell id="10" value="climb up/down" style="ellipse;whiteSpace=wrap;html=1;" parent="1" vertex="1">
                    <mxGeometry x="70" y="500" width="90" height="60" as="geometry"/>
                </mxCell>
                <mxCell id="12" value="enable/disable shooter limelight" style="ellipse;whiteSpace=wrap;html=1;" parent="1" vertex="1">
                    <mxGeometry x="490" y="360" width="130" height="90" as="geometry"/>
                </mxCell>
                <mxCell id="14" value="enable/disable intake limelight" style="ellipse;whiteSpace=wrap;html=1;" parent="1" vertex="1">
                    <mxGeometry x="160" y="370" width="120" height="80" as="geometry"/>
                </mxCell>
                <mxCell id="16" value="control LEDs" style="ellipse;whiteSpace=wrap;html=1;" parent="1" vertex="1">
                    <mxGeometry x="345" y="480" width="80" height="70" as="geometry"/>
                </mxCell>
                <mxCell id="18" value="fire command" style="ellipse;whiteSpace=wrap;html=1;" parent="1" vertex="1">
                    <mxGeometry x="60" y="415" width="90" height="60" as="geometry"/>
                </mxCell>
                <mxCell id="19" value="Reset Swerve Forward" style="ellipse;whiteSpace=wrap;html=1;" vertex="1" parent="1">
                    <mxGeometry x="160" y="120" width="90" height="60" as="geometry"/>
                </mxCell>
            </root>
        </mxGraphModel>
    </diagram>
</mxfile>